<?xml version="1.0" encoding="UTF-8" standalone="no"?>
<!-- Created with Inkscape (http://www.inkscape.org/) -->

<svg
   width="85.884186mm"
   height="151.98439mm"
   viewBox="0 0 85.884186 151.98439"
   version="1.1"
   id="svg1"
   inkscape:export-filename=".\bitmap.svg"
   inkscape:export-xdpi="96"
   inkscape:export-ydpi="96"
   xmlns:inkscape="http://www.inkscape.org/namespaces/inkscape"
   xmlns:sodipodi="http://sodipodi.sourceforge.net/DTD/sodipodi-0.dtd"
   xmlns:xlink="http://www.w3.org/1999/xlink"
   xmlns="http://www.w3.org/2000/svg"
   xmlns:svg="http://www.w3.org/2000/svg">
  <sodipodi:namedview
     id="namedview1"
     pagecolor="#ffffff"
     bordercolor="#000000"
     borderopacity="0.25"
     inkscape:showpageshadow="2"
     inkscape:pageopacity="0.0"
     inkscape:pagecheckerboard="0"
     inkscape:deskcolor="#d1d1d1"
     inkscape:document-units="mm"
     showguides="true">
    <sodipodi:guide
       position="11.332595,175.50746"
       orientation="1,0"
       id="guide2"
       inkscape:locked="false" />
  </sodipodi:namedview>
  <defs
     id="defs1">
    <linearGradient
       id="linearGradient6"
       inkscape:collect="always">
      <stop
         style="stop-color:#0003e9;stop-opacity:1;"
         offset="0"
         id="stop5" />
      <stop
         style="stop-color:#ffffff;stop-opacity:0.63428569;"
         offset="1"
         id="stop6" />
    </linearGradient>
    <inkscape:path-effect
       effect="fillet_chamfer"
       id="path-effect5"
       is_visible="true"
       lpeversion="1"
       nodesatellites_param="F,0,0,1,0,13.6,0,1 @ F,0,0,1,0,13.6,0,1 @ F,0,0,1,0,13.6,0,1 @ F,0,0,1,0,13.6,0,1"
       radius="51.401576"
       unit="px"
       method="auto"
       mode="F"
       chamfer_steps="1"
       flexible="false"
       use_knot_distance="true"
       apply_no_radius="true"
       apply_with_radius="true"
       only_selected="false"
       hide_knots="false" />
    <linearGradient
       id="linearGradient1"
       inkscape:collect="always">
      <stop
         style="stop-color:#0003e9;stop-opacity:1;"
         offset="0"
         id="stop1" />
      <stop
         style="stop-color:#babaf2;stop-opacity:1;"
         offset="1"
         id="stop2" />
    </linearGradient>
    <linearGradient
       inkscape:collect="always"
       xlink:href="#linearGradient6"
       id="linearGradient2"
       x1="57.182713"
       y1="67.685654"
       x2="57.766209"
       y2="189.63654"
       gradientUnits="userSpaceOnUse" />
    <linearGradient
       inkscape:collect="always"
       xlink:href="#linearGradient1"
       id="linearGradient4"
       gradientUnits="userSpaceOnUse"
       x1="57.182713"
       y1="67.685654"
       x2="57.766209"
       y2="189.63654"
       gradientTransform="matrix(1,0,0,0.6394231,-5.1668945e-7,67.957768)" />
    <linearGradient
       inkscape:collect="always"
       xlink:href="#linearGradient6"
       id="linearGradient7"
       gradientUnits="userSpaceOnUse"
       x1="57.182713"
       y1="67.685654"
       x2="57.766209"
       y2="189.63654"
       gradientTransform="matrix(1.0057836,0,0,0.30080459,-0.33746991,16.532793)" />
  </defs>
  <g
     inkscape:label="Capa 1"
     inkscape:groupmode="layer"
     id="layer1"
     transform="translate(-46.433612,-36.635155)">
    <rect
       style="fill:url(#linearGradient2);stroke:#100b5c;stroke-width:0.3;stroke-dasharray:none;stroke-opacity:0.58"
       id="rect1"
       width="23.339878"
       height="121.36739"
       x="46.679764"
       y="67.102158"
       rx="13.6" />
    <path
       style="fill:none;fill-opacity:1;stroke:#03035e;stroke-width:3.6;stroke-dasharray:none;stroke-opacity:0.58"
       d="m 63.620831,154.31042 h 12.377841 l 3.300759,-12.79043 2.888162,40.84687 7.01411,-80.45596 9.077049,56.11288 6.188908,-34.24536 4.95114,51.57434 7.0141,-68.07813 2.88817,46.6232 h 12.99673"
       id="path6"
       sodipodi:nodetypes="ccccccccccc" />
    <path
       style="fill:url(#linearGradient4);stroke:#03035e;stroke-width:0.3;stroke-dasharray:none;stroke-opacity:0.58"
       id="rect4"
       width="23.339878"
       height="77.605118"
       x="46.679764"
       y="110.86443"
       rx="13.6"
       inkscape:path-effect="#path-effect5"
       sodipodi:type="rect"
       d="m 60.279764,110.86443 a 11.828466,11.828466 54.390992 0 1 9.739878,13.6 v 50.40512 a 13.6,13.6 135 0 1 -13.6,13.6 11.828466,11.828466 54.390992 0 1 -9.739878,-13.6 v -50.40512 a 13.6,13.6 135 0 1 13.6,-13.6 z" />
    <path
       d="m 58.349927,36.717661 c -0.203204,0 -0.405558,0.0058 -0.606165,0.01757 -0.200607,0.01177 -0.399612,0.02944 -0.597379,0.05271 -0.197768,0.02327 -0.393908,0.05182 -0.588595,0.0863 -0.194687,0.03448 -0.387929,0.07449 -0.579293,0.11989 -0.191363,0.0454 -0.381159,0.0964 -0.568957,0.152445 -0.187798,0.05605 -0.373599,0.117555 -0.557589,0.183968 -0.18399,0.06641 -0.366279,0.137964 -0.54622,0.214457 -0.17994,0.07649 -0.357652,0.15762 -0.533301,0.243913 -0.175647,0.08629 -0.349267,0.177559 -0.520381,0.273369 -0.171115,0.09581 -0.339574,0.196229 -0.505913,0.301273 -0.166337,0.105045 -0.330123,0.214665 -0.491442,0.328662 -0.16132,0.113997 -0.320398,0.23235 -0.476457,0.355017 -0.15606,0.122667 -0.309364,0.249801 -0.45992,0.380856 -0.150557,0.131055 -0.298056,0.265982 -0.442867,0.405143 -0.144813,0.139161 -0.286989,0.282447 -0.425814,0.429431 -0.138825,0.146984 -0.274615,0.297643 -0.40721,0.452169 -0.132597,0.154526 -0.261966,0.313121 -0.388091,0.474906 -0.126123,0.161785 -0.249042,0.326815 -0.368452,0.495577 -0.119412,0.168762 -0.235327,0.341307 -0.347783,0.516765 -0.112456,0.175456 -0.221336,0.354014 -0.326595,0.535884 -0.105258,0.18187 -0.207072,0.367005 -0.304891,0.555005 -0.09782,0.188 -0.191501,0.378726 -0.281636,0.572575 -0.09014,0.193849 -0.176687,0.39073 -0.258899,0.590145 -0.08221,0.199415 -0.160048,0.401466 -0.234095,0.606164 -0.07405,0.204699 -0.144168,0.411967 -0.209806,0.621668 -0.06564,0.2097 -0.12698,0.421717 -0.183968,0.636137 -0.05699,0.214419 -0.109518,0.431232 -0.157613,0.650089 -0.0481,0.218858 -0.09178,0.439996 -0.130741,0.663009 -0.03896,0.223012 -0.07325,0.448008 -0.102837,0.674894 -0.02958,0.226886 -0.05445,0.455787 -0.07441,0.686263 -0.01996,0.230476 -0.03486,0.462296 -0.04496,0.696082 -0.0101,0.233784 -0.0155,0.469088 -0.0155,0.7059 v 9.150862 c 0,0.236812 0.0054,0.472116 0.0155,0.7059 0.0101,0.233785 0.02499,0.466122 0.04496,0.696599 0.01996,0.230475 0.04483,0.45886 0.07441,0.685746 0.02958,0.226886 0.06388,0.451881 0.102837,0.674894 0.03896,0.223013 0.08265,0.444151 0.130741,0.663009 0.04809,0.218857 0.100625,0.435669 0.157613,0.650089 0.04787,0.180105 0.100536,0.35757 0.154513,0.534335 0.03144,-0.09237 0.06048,-0.186141 0.09353,-0.277503 0.07405,-0.204698 0.151884,-0.40675 0.234094,-0.606164 0.08221,-0.199415 0.168759,-0.396296 0.258899,-0.590145 0.09014,-0.193849 0.183817,-0.384575 0.281637,-0.572575 0.09782,-0.188 0.199633,-0.373135 0.304891,-0.555005 0.105258,-0.18187 0.214139,-0.360428 0.326595,-0.535885 0.112455,-0.175457 0.22837,-0.348002 0.347782,-0.516764 0.119411,-0.168762 0.242329,-0.333792 0.368453,-0.495577 0.126125,-0.161785 0.255493,-0.320381 0.38809,-0.474906 0.132596,-0.154526 0.268385,-0.305185 0.40721,-0.452169 0.138825,-0.146984 0.281001,-0.29027 0.425814,-0.429431 0.144812,-0.139161 0.29231,-0.274089 0.442867,-0.405144 0.150557,-0.131054 0.30386,-0.258188 0.45992,-0.380855 0.156059,-0.122667 0.315137,-0.24102 0.476457,-0.355017 0.16132,-0.113997 0.325105,-0.223617 0.491443,-0.328662 0.166339,-0.105044 0.334797,-0.205464 0.505912,-0.301274 0.171114,-0.09581 0.344734,-0.187078 0.520382,-0.273368 0.175649,-0.08629 0.353361,-0.167423 0.533301,-0.243913 0.17994,-0.07649 0.36223,-0.148047 0.54622,-0.214457 0.183989,-0.06641 0.36979,-0.127918 0.557588,-0.183968 0.187798,-0.05604 0.377595,-0.107046 0.568958,-0.152445 0.191364,-0.0454 0.384606,-0.08541 0.579293,-0.11989 0.194686,-0.03448 0.390826,-0.06303 0.588594,-0.0863 0.197768,-0.02327 0.396773,-0.04094 0.59738,-0.05271 0.200606,-0.01177 0.40296,-0.01757 0.606164,-0.01757 0.203204,0 0.40504,0.0058 0.605648,0.01757 0.200607,0.01177 0.399612,0.02944 0.59738,0.05271 0.197767,0.02327 0.394425,0.05182 0.589111,0.0863 0.194687,0.03448 0.387413,0.07449 0.578776,0.11989 0.191364,0.0454 0.38116,0.0964 0.568957,0.152445 0.187798,0.05605 0.373598,0.117558 0.557589,0.183968 0.18399,0.06641 0.366279,0.137967 0.54622,0.214457 0.17994,0.07649 0.357653,0.157623 0.533301,0.243913 0.175649,0.08629 0.349267,0.177558 0.520381,0.273368 0.171115,0.09581 0.339575,0.19623 0.505913,0.301274 0.166339,0.105045 0.33064,0.214665 0.491959,0.328662 0.16132,0.113997 0.319881,0.23235 0.47594,0.355017 0.156059,0.122667 0.309364,0.249801 0.459921,0.380855 0.150556,0.131055 0.298572,0.265983 0.443383,0.405144 0.144812,0.139161 0.286473,0.282447 0.425297,0.429431 0.138825,0.146984 0.274615,0.297643 0.407211,0.452169 0.132596,0.154525 0.261965,0.313121 0.38809,0.474906 0.126125,0.161785 0.249042,0.326815 0.368453,0.495577 0.119412,0.168762 0.235325,0.341307 0.347782,0.516764 0.112456,0.175457 0.221336,0.354015 0.326595,0.535885 0.105258,0.18187 0.207071,0.367005 0.304891,0.555005 0.09782,0.188 0.191497,0.378726 0.281637,0.572575 0.09014,0.193849 0.176689,0.39073 0.258899,0.590145 0.08221,0.199414 0.160044,0.401466 0.234094,0.606164 0.07405,0.204699 0.144166,0.411967 0.209806,0.621668 0.01051,0.03356 0.01917,0.06812 0.02946,0.101802 0.039,-0.114591 0.07993,-0.228059 0.116272,-0.344165 0.06564,-0.2097 0.12698,-0.421717 0.183968,-0.636137 0.05699,-0.21442 0.109518,-0.431232 0.157613,-0.650089 0.04809,-0.218858 0.09178,-0.439996 0.130741,-0.663009 0.03896,-0.223013 0.07325,-0.448008 0.102836,-0.674894 0.02958,-0.226886 0.05445,-0.455271 0.07441,-0.685746 0.01997,-0.230477 0.03486,-0.462814 0.04496,-0.696599 0.0101,-0.233784 0.0155,-0.469088 0.0155,-0.7059 v -9.150862 c 0,-0.236812 -0.0054,-0.472116 -0.0155,-0.7059 -0.0101,-0.233786 -0.02499,-0.465606 -0.04496,-0.696082 -0.01996,-0.230476 -0.04483,-0.459377 -0.07441,-0.686263 -0.02958,-0.226886 -0.06387,-0.451882 -0.102836,-0.674894 -0.03896,-0.223013 -0.08265,-0.444151 -0.130741,-0.663009 -0.0481,-0.218857 -0.100625,-0.43567 -0.157613,-0.650089 -0.05699,-0.21442 -0.11833,-0.426437 -0.183968,-0.636137 -0.06564,-0.209701 -0.13576,-0.416969 -0.209807,-0.621668 -0.07405,-0.204698 -0.151881,-0.406749 -0.234094,-0.606164 -0.08221,-0.199415 -0.168762,-0.396296 -0.258899,-0.590145 -0.09014,-0.193849 -0.183818,-0.384575 -0.281636,-0.572575 -0.09782,-0.188 -0.199633,-0.373135 -0.304891,-0.555005 -0.105259,-0.18187 -0.21414,-0.360428 -0.326595,-0.535884 -0.112457,-0.175458 -0.228371,-0.348003 -0.347783,-0.516765 -0.119411,-0.168762 -0.242328,-0.333792 -0.368453,-0.495577 -0.126125,-0.161785 -0.255494,-0.32038 -0.38809,-0.474906 -0.132596,-0.154526 -0.268385,-0.305185 -0.40721,-0.452169 -0.138825,-0.146984 -0.280485,-0.29027 -0.425297,-0.429431 -0.144812,-0.139161 -0.292827,-0.274088 -0.443384,-0.405143 -0.150557,-0.131055 -0.303861,-0.258189 -0.45992,-0.380856 -0.15606,-0.122667 -0.31462,-0.24102 -0.47594,-0.355017 -0.16132,-0.113997 -0.325621,-0.223617 -0.49196,-0.328662 -0.166338,-0.105044 -0.334797,-0.205465 -0.505912,-0.301273 -0.171115,-0.09581 -0.344733,-0.187076 -0.520382,-0.273369 -0.175647,-0.08629 -0.353361,-0.167419 -0.5333,-0.243913 -0.179941,-0.07649 -0.36223,-0.148044 -0.54622,-0.214457 -0.183991,-0.06641 -0.369791,-0.127918 -0.557589,-0.183968 -0.187798,-0.05605 -0.377594,-0.107041 -0.568958,-0.152445 -0.191362,-0.0454 -0.384089,-0.08541 -0.578776,-0.11989 -0.194685,-0.03448 -0.391343,-0.06303 -0.589111,-0.0863 -0.197768,-0.02327 -0.396773,-0.04094 -0.597379,-0.05271 -0.200608,-0.01178 -0.402444,-0.01757 -0.605648,-0.01757 z"
       style="fill:url(#linearGradient7);stroke:#100b5c;stroke-width:0.165012;stroke-opacity:0.58"
       id="path9" />
  </g>
</svg>
